<?xml version="1.0" standalone="no"?><!DOCTYPE svg PUBLIC "-//W3C//DTD SVG 1.1//EN" "http://www.w3.org/Graphics/SVG/1.1/DTD/svg11.dtd"><svg t="1558062079445" class="icon" style="" viewBox="0 0 1024 1024" version="1.1" xmlns="http://www.w3.org/2000/svg" p-id="68576" xmlns:xlink="http://www.w3.org/1999/xlink" width="200" height="200"><defs><style type="text/css"></style></defs><path d="M879.304348 246.294261a397.890783 397.890783 0 0 0-85.526261-126.886957A397.979826 397.979826 0 0 0 511.465739 2.448696a397.935304 397.935304 0 0 0-282.267826 116.914087A397.935304 397.935304 0 0 0 112.150261 401.764174a397.935304 397.935304 0 0 0 116.914087 282.267826 397.890783 397.890783 0 0 0 162.504348 98.660174l-55.073392 136.503652H265.527652a35.127652 35.127652 0 1 0 0 70.255304h491.831652a35.127652 35.127652 0 1 0 0-70.255304h-64.734608l-54.628174-138.729739a396.243478 396.243478 0 0 0 73.104695-32.946087 398.914783 398.914783 0 0 0 199.590957-345.800348c0-53.871304-10.551652-106.139826-31.387826-155.380869z m-366.413913-132.229565c27.603478 0 50.042435 22.438957 50.042435 50.042434a50.086957 50.086957 0 0 1-100.08487 0c0-27.603478 22.438957-50.086957 49.997913-50.086956z m-1.335652 567.963826a211.923478 211.923478 0 0 1-211.745392-211.70087A211.923478 211.923478 0 0 1 511.554783 258.582261a211.923478 211.923478 0 0 1 211.700869 211.745391 211.923478 211.923478 0 0 1-211.700869 211.70087z" fill="#ffffff" p-id="68577" data-spm-anchor-id="a313x.7781069.0.i73" class="selected"></path><path d="M511.554783 311.963826a158.541913 158.541913 0 0 0-158.408348 158.363826 158.541913 158.541913 0 0 0 158.408348 158.363826 158.541913 158.541913 0 0 0 158.363826-158.363826A158.541913 158.541913 0 0 0 511.554783 311.963826" fill="#ffffff" p-id="68578" data-spm-anchor-id="a313x.7781069.0.i74" class="selected"></path></svg>