<?xml version="1.0" standalone="no"?><!DOCTYPE svg PUBLIC "-//W3C//DTD SVG 1.1//EN" "http://www.w3.org/Graphics/SVG/1.1/DTD/svg11.dtd"><svg t="1557886233282" class="icon" style="" viewBox="0 0 1024 1024" version="1.1" xmlns="http://www.w3.org/2000/svg" p-id="2009" xmlns:xlink="http://www.w3.org/1999/xlink" width="200" height="200"><defs><style type="text/css"></style></defs><path d="M511.999872 0c152.089562 0 288.767928 66.457583 382.591904 171.878357A510.079872 510.079872 0 0 1 1023.999744 511.999872a509.695873 509.695873 0 0 1-108.620773 315.212721C821.631795 946.969363 675.737431 1023.999744 511.999872 1023.999744a510.259072 510.259072 0 0 1-350.873512-139.263965C61.951985 791.321402 0 658.841435 0 511.999872c0-113.715172 37.145591-218.803145 99.967975-303.820724C193.228752 81.94558 343.116714 0 511.999872 0z" fill="#28B7A3" p-id="2010" data-spm-anchor-id="a313x.7781069.0.i4" class=""></path><path d="M684.799829 730.879817c2.559999 0 5.119999-2.559999 5.119999-5.119998v-184.319954c0-11.519997 8.959998-19.199995 19.199995-19.199996s19.199995 8.959998 20.479995 19.199996v184.319954c0 23.039994-19.199995 42.239989-42.23999 42.239989H335.359916c-23.039994 0-42.239989-19.199995-42.239989-42.239989v-184.319954c0-10.239997 7.679998-19.199995 17.919995-19.199996 10.239997 0 19.199995 8.959998 19.199995 19.199996v184.319954c0 2.559999 2.559999 5.119999 5.119999 5.119998h349.439913z m-104.959974-79.35998c-2.559999-3.839999-2.559999-5.119999 1.28-6.399998 11.519997-6.399998 21.759995-11.519997 31.999992-17.919996 2.559999-1.28 2.559999 0 3.839999 2.56 6.399998 12.799997 14.079996 26.879993 21.759994 39.67999 2.559999 2.559999 2.559999 5.119999 2.56 7.679998v1.279999c0 10.239997-10.239997 16.639996-21.759995 20.479995-7.679998 2.559999-14.079996-2.559999-19.199995-10.239997-6.399998-12.799997-12.799997-24.319994-20.479995-37.119991z m-30.719992 0c3.839999-1.28 6.399998 0 6.399998 3.839999 3.839999 21.759995-15.359996 43.519989-38.39999 43.519989-11.519997 0-21.759995-5.119999-29.439993-14.079996-3.839999-3.839999-3.839999-5.119999 1.28-7.679998 8.959998-3.916799 17.663996-7.603198 26.367993-11.238397l7.423998-3.1232c8.703998-3.635199 17.407996-7.321598 26.367994-11.238397z m-87.039979-125.439969c-12.799997 0-24.319994 5.119999-33.279991 14.079997l-60.159985 60.159985c-17.919996 17.919996-17.919996 47.359988 0 65.279984 8.959998 8.959998 20.479995 14.079996 33.279992 14.079996s24.319994-5.119999 33.279991-14.079996l60.159985-60.159985c8.959998-8.959998 14.079996-20.479995 14.079997-33.279992s-5.119999-24.319994-14.079997-33.279992c-8.959998-8.959998-20.479995-12.799997-33.279992-12.799997z m26.879994 72.959982l-60.159985 60.159985c-7.679998 7.679998-16.639996 11.519997-26.879993 11.519997s-19.199995-3.839999-26.879994-11.519997c-15.359996-15.359996-15.359996-39.67999 0-53.759986L435.199891 545.279864c7.679998-7.679998 16.639996-11.519997 26.879993-11.519997s19.199995 3.839999 26.879994 11.519997c7.679998 7.679998 11.519997 16.639996 11.519997 26.879993s-3.839999 19.199995-11.519997 26.879993z m15.359996 25.599994c15.359996-6.399998 31.999992-1.28 43.519989 11.519997 2.559999 3.839999 2.559999 5.119999-2.559999 7.679998a990.719752 990.719752 0 0 0-25.190394 10.598397l-7.219198 3.1232a977.663756 977.663756 0 0 1-25.190394 10.598397c-7.679998 3.839999-8.959998 2.559999-8.959998-5.119999v-2.559999c1.28-16.639996 10.239997-30.719992 25.599994-35.839991z m-126.719968-19.199995l28.159993-28.159993 51.199987 51.199987-28.159993 28.159993c-6.399998 6.399998-15.359996 10.239997-25.599994 10.239997s-19.199995-3.839999-25.599993-10.239997c-14.079996-14.079996-14.079996-37.119991 0-51.199987z m182.348754 14.233596c-3.071999-5.580799-6.195198-11.187197-9.548798-16.793596-1.28-2.559999-2.559999-6.399998-2.559999-8.959997 0-11.519997 8.959998-15.359996 16.639996-19.199996 6.399998-3.839999 12.799997-3.839999 19.199995 0 2.559999 1.28 5.119999 3.839999 6.399998 6.399999 7.679998 12.799997 14.079996 25.599994 19.199996 38.39999 2.559999 3.839999 1.28 5.119999-1.28 6.399999-10.239997 5.119999-20.479995 10.239997-30.719992 16.639995-2.559999 1.28-3.839999 2.559999-5.119999-1.279999a523.084669 523.084669 0 0 1-9.548798-16.793596l-2.662399-4.812799zM463.359884 540.159865c-7.679998 0-15.359996 2.559999-21.759994 8.959998l-19.199996 19.199995c-1.28 1.28-1.28 2.559999 0 3.839999 0 0 1.28 1.28 2.56 1.28s1.28 0 2.559999-1.28l19.199995-19.199995c5.119999-5.119999 10.239997-7.679998 16.639996-7.679998s12.799997 2.559999 16.639996 7.679998c1.28 1.28 2.559999 1.28 3.839999 0 1.28-1.28 1.28-2.559999 0-3.839999-5.119999-5.119999-11.519997-8.959998-20.479995-8.959998z m-163.839959-226.559943h422.399895l46.079988 115.199971c0 34.559991-35.839991 62.719984-63.999984 62.719984-26.879993 0-63.999984-2.559999-63.999984-37.119991 0 34.559991-40.95999 37.119991-63.999984 37.119991-20.479995 0-63.999984-2.559999-63.999984-37.119991 0 34.559991-47.359988 38.39999-63.999984 37.119991-21.759995-1.28-63.999984-2.559999-63.999984-37.119991 0 34.559991-39.67999 39.67999-63.999984 37.119991-31.999992-2.559999-63.999984-28.159993-63.999984-62.719984l43.519989-115.199971z m223.999944 63.999984V348.159913c0-6.399998-5.119999-11.519997-11.519997-11.519997s-11.519997 5.119999-11.519997 11.519997v28.159993H471.039882c-6.399998 0-11.519997 5.119999-11.519997 11.519997s5.119999 11.519997 11.519997 11.519997h26.879994v29.439993c0 6.399998 5.119999 11.519997 11.519997 11.519997s11.519997-5.119999 11.519997-11.519997V399.3599h29.439992c6.399998 0 11.519997-3.839999 11.519998-10.239997s-5.119999-11.519997-11.519998-11.519997h-26.879993zM693.759827 255.999936c12.799997 0 21.759995 8.959998 21.759994 21.759995s-8.959998 21.759995-21.759994 21.759994H327.679918c-12.799997 0-21.759995-8.959998-21.759994-21.759994s8.959998-21.759995 21.759994-21.759995h366.079909z" fill="#ffffff" p-id="2011" data-spm-anchor-id="a313x.7781069.0.i3" class=""></path></svg>