<?xml version="1.0" standalone="no"?><!DOCTYPE svg PUBLIC "-//W3C//DTD SVG 1.1//EN" "http://www.w3.org/Graphics/SVG/1.1/DTD/svg11.dtd">
<svg t="1557736658876" class="icon" style="" viewBox="0 0 1024 1024" version="1.1" 
  xmlns="http://www.w3.org/2000/svg" p-id="14859" 
  xmlns:xlink="http://www.w3.org/1999/xlink" width="200" height="200">
  <defs>
    <style type="text/css"></style>
  </defs>
  <path d="M335.34976 20.97664h546.95424a24.22784 24.22784 0 0 1 24.1664 24.1664v933.41696a24.23296 24.23296 0 0 1-24.1664 24.17152H141.99296a24.22784 24.22784 0 0 1-24.1664-24.17152V238.24896c0-7.29088 3.32288-13.94176 8.43776-18.28864L318.34624 28.0064a24.44288 24.44288 0 0 1 17.00352-7.02976z m24.04352 48.2048l-0.256 169.0624a24.02304 24.02304 0 0 1-24.04352 24.04352v0.128H166.03648v691.968H858.0096V69.18144H359.39328z m-159.21152 144.896h110.87872l0.128-110.87872-111.00672 110.87872z"  p-id="14860"></path>
  <path d="M238.54592 825.61024h546.82112v32.22528H238.54592v-32.22528z m0-301.67552h209.20832v32.22528H238.54592v-32.22528z m449.50528-151.54176l30.5664-47.82592a4.0192 4.0192 0 0 1 3.456-1.92h69.94944c1.536 0 2.82112 0.76288 3.57888 2.176a3.66592 3.66592 0 0 1-0.25088 4.09088l-70.08256 103.96672a4.06016 4.06016 0 0 0 0 4.47488l75.83744 112.4096c0.896 1.28 0.896 2.816 0.256 4.096a3.95264 3.95264 0 0 1-3.57888 2.176h-74.42432a4.1984 4.1984 0 0 1-3.456-1.92l-34.78528-52.0448c-1.65888-2.432-5.11488-2.56-6.77376-0.128l-35.29728 52.4288a3.86048 3.86048 0 0 1-3.32288 1.792H568.4736a3.95264 3.95264 0 0 1-3.57888-2.176 3.67104 3.67104 0 0 1 0.256-4.09088l74.30656-111.13472a4.0704 4.0704 0 0 0 0-4.48l-87.0912-123.41248h-3.95776v84.5312c0 2.17088-1.792 3.95776-3.96288 3.95776h-60.3648a3.97312 3.97312 0 0 1-3.95776-3.95776V158.0544c0-2.176 1.78688-3.96288 3.95776-3.96288h102.05184c48.84992 0 85.03808 28.2624 85.03808 79.2832 0 28.51328-12.78464 53.7088-36.06016 67.52256-1.024 0.64-1.664 1.408-1.92 2.56s-0.13312 2.176 0.50688 3.072l46.17728 66.37056c1.90976 2.18112 6.51776 2.05312 8.17664-0.50688z m-139.776-154.22464v32.22528c0 2.176 1.79712 3.95776 3.96288 3.95776h21.48352c6.76864 0 18.02752-0.512 23.39328-5.11488 3.95776-3.45088 4.74112-11.25376 4.74112-16.23552 0-4.85376-0.64512-10.74176-4.60288-14.19264-5.23776-4.47488-17.00352-4.73088-23.53152-4.73088h-21.48352c-2.16576 0-3.96288 1.92-3.96288 4.09088z m-309.72928 406.28224h547.07712v32.22528H238.54592v-32.22528z m0.13312 100.51584h546.82112v32.22528H238.67904v-32.22528z"  p-id="14861"></path>
</svg>