<?xml version="1.0" standalone="no"?><!DOCTYPE svg PUBLIC "-//W3C//DTD SVG 1.1//EN" "http://www.w3.org/Graphics/SVG/1.1/DTD/svg11.dtd"><svg t="1559532899525" class="icon" style="" viewBox="0 0 1024 1024" version="1.1" xmlns="http://www.w3.org/2000/svg" p-id="4512" xmlns:xlink="http://www.w3.org/1999/xlink" width="128" height="128"><defs><style type="text/css"></style></defs><path d="M1000.96 548.693333c-1.28-7.253333-3.413333-14.08-6.4-20.48v-0.853333c-6.826667-14.933333-15.786667-28.586667-27.733333-41.813333-11.946667-13.653333-23.893333-23.04-35.84-29.44-6.4-3.413333-12.373333-5.973333-19.626667-8.106667-8.533333-2.56-17.066667-3.84-25.6-4.266667h-3.413333c-8.96 0-17.92 1.28-26.88 4.266667-10.24 3.413333-20.48 8.533333-29.866667 16.213333l-0.426667 0.426667-0.426666 0.426667c-4.693333 3.84-9.813333 8.533333-15.786667 14.506666-5.12 5.12-9.813333 9.386667-13.653333 12.8l-3.84 3.84-2.986667 2.986667-29.866667 28.586667 1.28 1.28-2.56 2.56-104.533333 107.52-39.68 40.96-35.413333 36.693333c-11.093333 11.093333-20.053333 20.906667-27.306667 28.586667l-11.946667 12.373333-1.706666 1.706667c-6.826667 6.826667-12.373333 13.653333-16.64 20.48-3.413333 5.546667-6.826667 11.52-9.813334 18.346666-2.56 5.546667-5.546667 12.373333-8.533333 22.186667-2.56 8.533333-5.546667 17.92-8.533333 28.16-2.986667 9.813333-5.546667 19.2-8.106667 28.16-3.413333 11.946667-5.12 20.053333-5.973333 27.306667-3.413333 22.186667 0.853333 41.386667 12.373333 56.32 6.826667 8.96 22.186667 22.613333 49.493333 22.613333 3.413333 0 6.826667 0 10.666667-0.426667h1.706667c5.973333-0.853333 13.226667-2.56 23.893333-5.546666 9.386667-2.56 18.773333-5.546667 29.866667-8.96 10.24-3.413333 20.053333-6.826667 29.44-10.666667 10.24-3.84 17.92-7.253333 23.893333-10.24 7.68-3.413333 15.36-8.106667 22.186667-14.08 4.693333-3.84 8.96-7.253333 12.8-10.666667 3.413333-2.986667 7.253333-6.826667 14.933333-14.933333 7.253333-7.253333 15.786667-16.213333 26.026667-27.306667 9.386667-9.813333 20.48-21.333333 34.56-35.413333l0.426666-0.426667 0.426667-0.426666 38.826667-40.533334 104.533333-107.946666 33.706667-34.986667 0.426666-0.426667c2.986667-2.56 6.4-5.973333 9.813334-9.386666l7.253333-7.253334c3.413333-3.413333 7.253333-7.253333 11.093333-11.52l0.853334-0.853333 0.853333-0.853333c7.68-8.533333 13.653333-18.346667 17.493333-28.586667 3.84-9.813333 5.546667-20.48 5.546667-30.72 1.28-7.253333 0.426667-14.933333-1.28-22.186667z m-223.146667 219.733334l-38.826666 40.533333c-12.8 13.226667-24.746667 25.173333-34.986667 35.84-10.24 10.666667-19.2 19.626667-26.026667 26.88-6.826667 6.826667-11.093333 11.093333-12.373333 11.946667-3.413333 2.986667-6.826667 6.4-11.093333 9.386666-4.266667 3.413333-8.533333 5.973333-13.226667 8.106667s-11.093333 5.12-20.053333 8.533333-17.92 6.4-27.733334 9.813334c-9.386667 2.986667-18.773333 5.973333-27.306666 8.106666s-14.933333 3.84-19.2 4.693334c-1.706667 0.426667-3.84 0.426667-5.12 0.426666-5.973333 0-9.813333-1.28-12.373334-4.266666-2.986667-3.84-3.84-9.813333-2.56-18.773334 0.853333-4.693333 2.133333-11.52 4.693334-20.48 2.56-8.96 5.12-17.92 7.68-27.733333 2.56-9.813333 5.546667-18.346667 8.106666-26.453333 2.56-8.106667 4.693333-13.653333 6.4-16.64 2.133333-4.693333 4.266667-8.96 6.4-12.8 2.56-3.84 5.973333-8.106667 10.666667-12.8 2.133333-2.133333 6.4-6.826667 13.653333-14.506667 7.253333-7.68 16.213333-17.066667 26.88-27.733333l35.413334-36.693334 39.68-40.96 104.96-108.373333 91.306666 94.72-104.96 109.226667z m175.36-183.893334c-1.706667 4.266667-4.266667 8.533333-7.68 12.373334-3.84 3.84-7.253333 7.68-10.666666 10.666666l-8.106667 8.106667c-2.56 2.56-5.12 5.12-7.253333 6.826667l-91.306667-93.866667c3.84-3.84 8.533333-8.106667 14.08-13.226667 5.546667-5.12 9.813333-9.386667 13.226667-12.373333 4.693333-3.84 9.386667-6.4 14.08-7.68 4.266667-1.28 8.96-2.133333 13.226666-2.133333h1.28c4.693333 0 9.386667 0.853333 13.653334 2.133333s8.106667 2.986667 11.52 4.693333c6.826667 3.84 14.506667 10.24 22.613333 19.2 8.106667 9.386667 14.506667 18.773333 19.2 29.013334 1.28 2.986667 2.56 6.4 2.986667 10.666666 0.853333 3.84 1.28 8.106667 1.28 12.373334s-0.853333 8.533333-2.133334 13.226666z m0 0" fill="" p-id="4513"></path><path d="M376.746667 928.853333H174.08c-34.986667 0-63.146667-29.013333-63.146667-65.28V169.386667c0-35.84 28.16-65.28 63.146667-65.28h673.28c34.986667 0 63.146667 29.013333 63.146667 65.28v176.64c0 18.346667 14.506667 32.853333 32 32.853333s32-14.933333 32-32.853333V169.386667C974.08 97.28 917.333333 38.4 847.36 38.4H174.08C104.106667 38.4 46.933333 97.28 46.933333 169.386667v694.186666c0 72.106667 57.173333 130.986667 127.146667 130.986667h202.666667c17.493333 0 32-14.933333 32-32.853333s-14.506667-32.853333-32-32.853334z m0 0" fill="" p-id="4514"></path><path d="M764.586667 253.44c0-18.346667-14.506667-32.853333-32-32.853333H276.906667c-17.493333 0-32 14.933333-32 32.853333 0 18.346667 14.506667 32.853333 32 32.853333h455.68c17.493333 0.426667 32-14.506667 32-32.853333z m0 0M276.906667 394.666667c-17.493333 0-32 14.933333-32 32.853333 0 18.346667 14.506667 32.853333 32 32.853333h314.453333c17.493333 0 32-14.933333 32-32.853333 0-18.346667-14.506667-32.853333-32-32.853333H276.906667z m0 0M455.253333 580.693333H276.906667c-17.493333 0-32 14.933333-32 32.853334 0 18.346667 14.506667 32.853333 32 32.853333h178.346666c17.493333 0 32-14.933333 32-32.853333s-14.506667-32.853333-32-32.853334z m0 0" fill="" p-id="4515"></path></svg>