<?xml version="1.0" standalone="no"?><!DOCTYPE svg PUBLIC "-//W3C//DTD SVG 1.1//EN" "http://www.w3.org/Graphics/SVG/1.1/DTD/svg11.dtd">
<svg t="1557736699936" class="icon" style="" viewBox="0 0 1024 1024" version="1.1" 
  xmlns="http://www.w3.org/2000/svg" p-id="15269" 
  xmlns:xlink="http://www.w3.org/1999/xlink" width="200" height="200">
  <defs>
    <style type="text/css"></style>
  </defs>
  <path d="M471.256977 932.15367c-3.030608-4.694631-4.210143-9.221634-7.186578-13.970438H91.684833c-22.275224 0-24.650648-2.9979-24.650648-26.86662V91.79829c0-25.187265 2.026879-26.865598 24.650648-26.865599h617.190204c20.691948 0 24.649626 4.84284 24.649626 26.865599v322.582405a313.646967 313.646967 0 0 1 19.541033-1.23473c3.292273-0.116523 6.595789-0.168651 9.919747-0.168651 22.48476 0 14.366001 2.416309 35.469867 7.005661V52.76222c0-29.134721-23.636698-52.761197-52.761198-52.761198H54.863714c-29.123478 0-52.760175 23.626476-52.760176 52.761198v877.592506c0 29.133699 23.636698 52.761197 52.761198 52.761198H522.594351c-29.030464-21.717142-33.167014-22.808774-51.337374-50.962254zM565.793546 458.033714z" p-id="15270" ></path>
  <path d="M565.793546 458.033714c-8.579738-8.621645-20.471169-13.959195-33.618794-13.959195H247.280231c-13.116962 0-24.988972 5.319151-33.576888 13.907067s-13.907066 20.470147-13.907066 33.575865c0 26.221658 21.251052 47.484976 47.484976 47.484975h225.623394c25.113672-32.859354 56.716831-60.504835 92.888899-81.008712zM213.702321 637.367c-8.588937 8.586893-13.907066 20.470147-13.907066 33.575865 0 26.221658 21.251052 47.484976 47.484976 47.484975h162.733935c0.737976-33.228342 6.752174-65.14836 17.241246-94.967907h-179.976204c-13.11594 0-24.98795 5.318129-33.576887 13.907067zM590.21626 312.174081h-0.001022c0-26.224724-21.259229-47.485998-47.482932-47.485998H247.274098c-26.224724 0-47.484976 21.259229-47.484976 47.484976 0 26.224724 21.259229 47.484976 47.484976 47.484975h295.458208c26.225746-0.001022 47.483953-21.260251 47.483954-47.483953zM1013.102077 660.069473c-16.964249-67.574891-57.445608-125.824913-112.258215-165.543764-27.034249-19.59725-57.545776-34.682829-90.439882-44.139552-25.718771-7.406336-52.894074-11.36708-81.003601-11.36708-3.165529 0-6.310615 0.050084-9.446503 0.160474-48.833162 1.547501-94.640826 15.066159-134.599877 37.727747-34.45285 19.527745-64.551438 45.857749-88.471264 77.155291-18.442246 24.119142-33.215054 51.204497-43.476192 80.399524-9.990274 28.400834-15.718276 58.801971-16.422522 90.450104a294.78156 294.78156 0 0 0-0.068482 6.592722c0 62.671745 19.717861 120.751072 53.294748 168.358703 26.562026 37.67664 61.797826 68.803488 102.801491 90.451125 40.723602 21.506584 87.1333 33.687277 136.389623 33.687277 161.532936 0 292.496083-130.962125 292.496083-292.496083-0.001022-24.642471-3.056161-48.572519-8.795407-71.436488zM729.405489 965.2706c-129.101853 0-233.759529-104.657675-233.759528-233.759528 0-129.101853 104.657675-233.759529 233.759528-233.759529 129.101853 0 233.759529 104.657675 233.759529 233.759529 0 129.101853-104.657675 233.759529-233.759529 233.759528z" p-id="15271" ></path>
  <path d="M664.701754 753.357002c35.385031-6.92798 53.476687-25.394757 54.250438-55.406463 0-44.61893-24.638382-66.94526-73.873241-66.945261h-51.939407c-14.630732 0-21.933833 7.702753-21.933833 23.083727v166.213257c0.756374 13.849827 8.084006 20.777807 21.933833 20.777807s21.15395-6.92798 21.927701-20.777807v-64.640363l65.795367 79.646217c3.842177 3.859553 9.60902 5.771954 17.311773 5.771953 13.076077-0.756374 20.379177-7.684354 21.933833-20.777807 0.756374-4.61695-1.156026-8.834248-5.771954-12.694823l-49.63451-54.250437z m-49.634509-30.011707v-51.939407h30.011706c17.693026 0.774773 26.925904 9.626396 27.700677 26.544651-0.774773 16.161879-10.00765 24.638382-27.700677 25.394756h-30.011706zM885.160338 663.321882c3.068427-3.842177 4.623083-8.077873 4.623083-12.694823-0.779883-13.849827-8.084006-21.15395-21.933833-21.933833-6.92798 0-13.474706 3.859553-19.622803 11.54493l-36.933554 51.939407-35.783661-51.939407c-6.171606-7.684354-12.694823-11.54493-19.622803-11.54493-14.6246 1.554656-22.327352 8.857757-23.083726 21.933833 0 4.61695 1.9124 8.852646 5.766843 12.694823l47.32859 64.640363-58.867387 79.646216c-2.31103 2.30592-3.859553 7.321499-4.61695 15.005854 0.756374 12.31868 8.077873 18.466777 21.927701 18.466776 8.459127 0 14.612334-2.687173 18.472909-8.077873l48.478484-66.951393 48.478483 66.951393c4.61695 5.3907 10.764024 8.077873 18.466777 8.077873 14.607224 0 22.308954-6.148097 23.083727-18.466776 0-6.153207-1.929777-11.1463-5.771954-15.005854l-57.712383-79.646216 47.322457-64.640363z" p-id="15272" ></path>
</svg>