<?xml version="1.0" standalone="no"?><!DOCTYPE svg PUBLIC "-//W3C//DTD SVG 1.1//EN" "http://www.w3.org/Graphics/SVG/1.1/DTD/svg11.dtd"><svg t="1558058735129" class="icon" style="" viewBox="0 0 1024 1024" version="1.1" xmlns="http://www.w3.org/2000/svg" p-id="7528" xmlns:xlink="http://www.w3.org/1999/xlink" width="200" height="200"><defs><style type="text/css"></style></defs><path d="M181.5 211.1h163.9c15 0 27.2-12.2 27.2-27.2s-12.2-27.2-27.2-27.2H127.1V375c0 15 12.2 27.2 27.2 27.2s27.2-12.2 27.2-27.2V211.1z m-1 656.8h163.9c15 0 27.2-12.2 27.2-27.2s-12.2-27.2-27.2-27.2H220l186.9-186.9c10.6-10.6 10.6-27.8 0-38.4-10.6-10.6-27.8-10.6-38.4 0L181.5 775V649.5c0-15-12.2-27.2-27.2-27.2s-27.2 12.2-27.2 27.2v218.4h53.4z m602.3-218.4v163.9H618.9c-15 0-27.2 12.2-27.2 27.2s12.2 27.2 27.2 27.2h218.4V649.5c0-15-12.2-27.2-27.2-27.2-15.1 0-27.3 12.2-27.3 27.2zM622.7 208.3h125.5L561.3 395.2c-10.6 10.6-10.6 27.8 0 38.4 10.6 10.6 27.8 10.6 38.4 0l186.9-186.9v125.5c0 15 12.2 27.2 27.2 27.2s27.2-12.2 27.2-27.2V153.9H622.7c-15 0-27.2 12.2-27.2 27.2 0 15.1 12.2 27.2 27.2 27.2z" fill="#ffffff" p-id="7529"></path></svg>